# xmcd
#
# Track frame offsets:
#	150
#	12910
#	30575
#	46125
#	62087
#	80420
#	96342
#	114605
#	130120
#	151972
#	167130
#	189175
#	203910
#
# Disc length: 2902 seconds
#
# Revision: 0
# Processed by: cddbd v1.4PL0 Copyright (c) Steve Scherf et al.
# Submitted via: EasyCDDAExtractor 4.6.0.1
#
DISCID=a10b540d
DTITLE=Ozark Mountain Daredevils - 13
DYEAR=1997
DGENRE=Country
TTITLE0=Dream-O
TTITLE1=Everywhere She Goes
TTITLE2=Bad Road
TTITLE3=Standing On The Corner
TTITLE4=Over Again
TTITLE5=New York
TTITLE6=Where Are We
TTITLE7=I'm Still Dreamin'
TTITLE8=If It's True
TTITLE9=In The Day, In The Night
TTITLE10=Tear In The Rain
TTITLE11=Love Is Calling
TTITLE12=Bar Hoppin'
EXTD=
EXTT0=
EXTT1=
EXTT2=
EXTT3=
EXTT4=
EXTT5=
EXTT6=
EXTT7=
EXTT8=
EXTT9=
EXTT10=
EXTT11=
EXTT12=
PLAYORDER=
